<svg width="40" height="40" viewBox="0 0 40 40" fill="none" xmlns="http://www.w3.org/2000/svg">
<rect width="40" height="40" rx="12" fill="#32C370" fill-opacity="0.14"/>
<path d="M29 27V28H11V27L13 25V19C13 15.9 15.03 13.17 18 12.29C18 12.19 18 12.1 18 12C18 11.4696 18.2107 10.9609 18.5858 10.5858C18.9609 10.2107 19.4696 10 20 10C20.5304 10 21.0391 10.2107 21.4142 10.5858C21.7893 10.9609 22 11.4696 22 12C22 12.1 22 12.19 22 12.29C24.97 13.17 27 15.9 27 19V25L29 27ZM22 29C22 29.5304 21.7893 30.0391 21.4142 30.4142C21.0391 30.7893 20.5304 31 20 31C19.4696 31 18.9609 30.7893 18.5858 30.4142C18.2107 30.0391 18 29.5304 18 29M27.75 11.19L26.33 12.61C28.04 14.3 29 16.6 29 19H31C31 16.07 29.84 13.25 27.75 11.19ZM9 19H11C11 16.6 11.96 14.3 13.67 12.61L12.25 11.19C10.16 13.25 9 16.07 9 19Z" fill="#32C370"/>
</svg>
