<svg width="40" height="40" viewBox="0 0 40 40" fill="none" xmlns="http://www.w3.org/2000/svg">
<rect width="40" height="40" rx="12" fill="#32C370" fill-opacity="0.14"/>
<path d="M20.0001 19.5199C19.2801 19.5199 18.8001 19.9999 18.8001 20.7199C18.8001 21.1999 19.1601 21.5599 19.5201 21.6799L19.1601 23.3599H20.7201L20.3601 21.6799C20.8401 21.5599 21.0801 21.1999 21.0801 20.7199C21.2001 19.9999 20.7201 19.5199 20.0001 19.5199ZM20.1201 14.3599C19.2801 14.3599 18.4401 14.9599 18.4401 15.7999V17.5999H21.6801V15.7999C21.5601 14.9599 20.9601 14.3599 20.1201 14.3599ZM20.0001 10.3999L11.6001 13.9999V17.5999C11.7201 22.8799 15.0801 27.5599 20.0001 29.4799C24.9201 27.5599 28.2801 22.8799 28.4001 17.5999V13.9999L20.0001 10.3999ZM24.8001 23.5999C24.8001 24.3199 24.3201 24.7999 23.6001 24.7999H16.4001C15.6801 24.7999 15.2001 24.3199 15.2001 23.5999V18.7999C15.2001 18.0799 15.6801 17.5999 16.4001 17.5999H16.7601V15.7999C16.8801 14.1199 18.3201 12.7999 20.0001 12.7999C21.6801 12.7999 23.1201 14.1199 23.2401 15.7999V17.5999H23.6001C24.3201 17.5999 24.8001 18.0799 24.8001 18.7999V23.5999Z" fill="#32C370"/>
</svg>
